<mxfile host="app.diagrams.net" modified="2021-10-05T10:58:09.706Z" agent="5.0 (Windows NT 10.0; Win64; x64) AppleWebKit/537.36 (KHTML, like Gecko) Chrome/94.0.4606.61 Safari/537.36" etag="RXJZsBDQHrcTJg5XTRl5" version="15.4.1" type="github">
  <diagram id="C5RBs43oDa-KdzZeNtuy" name="Page-1">
    <mxGraphModel dx="1804" dy="456" grid="1" gridSize="10" guides="1" tooltips="1" connect="1" arrows="1" fold="1" page="1" pageScale="1" pageWidth="827" pageHeight="1169" math="0" shadow="0">
      <root>
        <mxCell id="WIyWlLk6GJQsqaUBKTNV-0" />
        <mxCell id="WIyWlLk6GJQsqaUBKTNV-1" parent="WIyWlLk6GJQsqaUBKTNV-0" />
        <mxCell id="WIyWlLk6GJQsqaUBKTNV-2" value="" style="rounded=0;html=1;jettySize=auto;orthogonalLoop=1;fontSize=11;endArrow=block;endFill=0;endSize=8;strokeWidth=1;shadow=0;labelBackgroundColor=none;edgeStyle=orthogonalEdgeStyle;" parent="WIyWlLk6GJQsqaUBKTNV-1" source="WIyWlLk6GJQsqaUBKTNV-3" edge="1">
          <mxGeometry relative="1" as="geometry">
            <mxPoint x="220" y="170" as="targetPoint" />
          </mxGeometry>
        </mxCell>
        <mxCell id="mx90RWG0O6bShRLROdk7-28" style="edgeStyle=orthogonalEdgeStyle;rounded=0;orthogonalLoop=1;jettySize=auto;html=1;exitX=1;exitY=0.5;exitDx=0;exitDy=0;shadow=0;labelBackgroundColor=none;endArrow=block;endFill=0;endSize=8;strokeWidth=1;" edge="1" parent="WIyWlLk6GJQsqaUBKTNV-1" source="WIyWlLk6GJQsqaUBKTNV-3" target="mx90RWG0O6bShRLROdk7-27">
          <mxGeometry relative="1" as="geometry" />
        </mxCell>
        <mxCell id="WIyWlLk6GJQsqaUBKTNV-3" value="Open app as guest" style="rounded=1;whiteSpace=wrap;html=1;fontSize=12;glass=0;strokeWidth=1;shadow=0;" parent="WIyWlLk6GJQsqaUBKTNV-1" vertex="1">
          <mxGeometry x="160" y="80" width="120" height="40" as="geometry" />
        </mxCell>
        <mxCell id="mx90RWG0O6bShRLROdk7-3" style="edgeStyle=orthogonalEdgeStyle;rounded=0;orthogonalLoop=1;jettySize=auto;html=1;exitX=0;exitY=0.5;exitDx=0;exitDy=0;entryX=0.5;entryY=0;entryDx=0;entryDy=0;shadow=0;labelBackgroundColor=none;endArrow=block;endFill=0;endSize=8;strokeWidth=1;" edge="1" parent="WIyWlLk6GJQsqaUBKTNV-1" source="mx90RWG0O6bShRLROdk7-0" target="mx90RWG0O6bShRLROdk7-1">
          <mxGeometry relative="1" as="geometry" />
        </mxCell>
        <mxCell id="mx90RWG0O6bShRLROdk7-13" style="edgeStyle=orthogonalEdgeStyle;rounded=0;orthogonalLoop=1;jettySize=auto;html=1;exitX=0.41;exitY=1.026;exitDx=0;exitDy=0;entryX=0.326;entryY=0.005;entryDx=0;entryDy=0;entryPerimeter=0;shadow=0;labelBackgroundColor=none;endArrow=block;endFill=0;endSize=8;strokeWidth=1;exitPerimeter=0;" edge="1" parent="WIyWlLk6GJQsqaUBKTNV-1" source="mx90RWG0O6bShRLROdk7-0" target="mx90RWG0O6bShRLROdk7-12">
          <mxGeometry relative="1" as="geometry" />
        </mxCell>
        <mxCell id="mx90RWG0O6bShRLROdk7-20" style="edgeStyle=orthogonalEdgeStyle;rounded=0;orthogonalLoop=1;jettySize=auto;html=1;exitX=1;exitY=0.5;exitDx=0;exitDy=0;entryX=0.5;entryY=0;entryDx=0;entryDy=0;shadow=0;labelBackgroundColor=none;endArrow=block;endFill=0;endSize=8;strokeWidth=1;" edge="1" parent="WIyWlLk6GJQsqaUBKTNV-1" source="mx90RWG0O6bShRLROdk7-0" target="mx90RWG0O6bShRLROdk7-19">
          <mxGeometry relative="1" as="geometry" />
        </mxCell>
        <mxCell id="mx90RWG0O6bShRLROdk7-0" value="Home" style="rounded=1;whiteSpace=wrap;html=1;fontSize=12;glass=0;strokeWidth=1;shadow=0;" vertex="1" parent="WIyWlLk6GJQsqaUBKTNV-1">
          <mxGeometry x="160" y="170" width="120" height="40" as="geometry" />
        </mxCell>
        <mxCell id="mx90RWG0O6bShRLROdk7-5" style="edgeStyle=orthogonalEdgeStyle;rounded=0;orthogonalLoop=1;jettySize=auto;html=1;exitX=0.5;exitY=1;exitDx=0;exitDy=0;entryX=0;entryY=0;entryDx=0;entryDy=0;shadow=0;labelBackgroundColor=none;endArrow=block;endFill=0;endSize=8;strokeWidth=1;" edge="1" parent="WIyWlLk6GJQsqaUBKTNV-1" source="mx90RWG0O6bShRLROdk7-1" target="mx90RWG0O6bShRLROdk7-4">
          <mxGeometry relative="1" as="geometry" />
        </mxCell>
        <mxCell id="mx90RWG0O6bShRLROdk7-1" value="Profile" style="rounded=1;whiteSpace=wrap;html=1;fontSize=12;glass=0;strokeWidth=1;shadow=0;" vertex="1" parent="WIyWlLk6GJQsqaUBKTNV-1">
          <mxGeometry x="30" y="260" width="120" height="40" as="geometry" />
        </mxCell>
        <mxCell id="mx90RWG0O6bShRLROdk7-7" style="edgeStyle=orthogonalEdgeStyle;rounded=0;orthogonalLoop=1;jettySize=auto;html=1;exitX=1;exitY=1;exitDx=0;exitDy=0;entryX=0.5;entryY=0;entryDx=0;entryDy=0;shadow=0;labelBackgroundColor=none;endArrow=block;endFill=0;endSize=8;strokeWidth=1;" edge="1" parent="WIyWlLk6GJQsqaUBKTNV-1" source="mx90RWG0O6bShRLROdk7-4" target="mx90RWG0O6bShRLROdk7-6">
          <mxGeometry relative="1" as="geometry" />
        </mxCell>
        <mxCell id="mx90RWG0O6bShRLROdk7-8" value="Yes" style="edgeLabel;html=1;align=center;verticalAlign=middle;resizable=0;points=[];" vertex="1" connectable="0" parent="mx90RWG0O6bShRLROdk7-7">
          <mxGeometry x="0.0126" y="2" relative="1" as="geometry">
            <mxPoint as="offset" />
          </mxGeometry>
        </mxCell>
        <mxCell id="mx90RWG0O6bShRLROdk7-10" style="edgeStyle=orthogonalEdgeStyle;rounded=0;orthogonalLoop=1;jettySize=auto;html=1;exitX=0;exitY=1;exitDx=0;exitDy=0;entryX=0.5;entryY=0;entryDx=0;entryDy=0;shadow=0;labelBackgroundColor=none;endArrow=block;endFill=0;endSize=8;strokeWidth=1;" edge="1" parent="WIyWlLk6GJQsqaUBKTNV-1" source="mx90RWG0O6bShRLROdk7-4" target="mx90RWG0O6bShRLROdk7-9">
          <mxGeometry relative="1" as="geometry" />
        </mxCell>
        <mxCell id="mx90RWG0O6bShRLROdk7-11" value="No" style="edgeLabel;html=1;align=center;verticalAlign=middle;resizable=0;points=[];" vertex="1" connectable="0" parent="mx90RWG0O6bShRLROdk7-10">
          <mxGeometry x="0.0778" y="-2" relative="1" as="geometry">
            <mxPoint as="offset" />
          </mxGeometry>
        </mxCell>
        <mxCell id="mx90RWG0O6bShRLROdk7-4" value="Login" style="rhombus;whiteSpace=wrap;html=1;shadow=0;fontFamily=Helvetica;fontSize=12;align=center;strokeWidth=1;spacing=6;spacingTop=-4;" vertex="1" parent="WIyWlLk6GJQsqaUBKTNV-1">
          <mxGeometry x="65" y="390" width="100" height="80" as="geometry" />
        </mxCell>
        <mxCell id="mx90RWG0O6bShRLROdk7-6" value="Logged in" style="rounded=1;whiteSpace=wrap;html=1;fontSize=12;glass=0;strokeWidth=1;shadow=0;" vertex="1" parent="WIyWlLk6GJQsqaUBKTNV-1">
          <mxGeometry x="140" y="520" width="120" height="40" as="geometry" />
        </mxCell>
        <mxCell id="mx90RWG0O6bShRLROdk7-9" value="Guest mode" style="rounded=1;whiteSpace=wrap;html=1;fontSize=12;glass=0;strokeWidth=1;shadow=0;" vertex="1" parent="WIyWlLk6GJQsqaUBKTNV-1">
          <mxGeometry x="-30" y="520" width="120" height="40" as="geometry" />
        </mxCell>
        <mxCell id="mx90RWG0O6bShRLROdk7-12" value="About" style="rounded=1;whiteSpace=wrap;html=1;fontSize=12;glass=0;strokeWidth=1;shadow=0;" vertex="1" parent="WIyWlLk6GJQsqaUBKTNV-1">
          <mxGeometry x="170" y="260" width="120" height="40" as="geometry" />
        </mxCell>
        <mxCell id="mx90RWG0O6bShRLROdk7-17" style="edgeStyle=orthogonalEdgeStyle;rounded=0;orthogonalLoop=1;jettySize=auto;html=1;exitX=1;exitY=0.5;exitDx=0;exitDy=0;entryX=0;entryY=0.5;entryDx=0;entryDy=0;shadow=0;labelBackgroundColor=none;endArrow=block;endFill=0;endSize=8;strokeWidth=1;" edge="1" parent="WIyWlLk6GJQsqaUBKTNV-1" source="mx90RWG0O6bShRLROdk7-14" target="WIyWlLk6GJQsqaUBKTNV-3">
          <mxGeometry relative="1" as="geometry" />
        </mxCell>
        <mxCell id="mx90RWG0O6bShRLROdk7-14" value="" style="ellipse;whiteSpace=wrap;html=1;aspect=fixed;fillColor=#000000;" vertex="1" parent="WIyWlLk6GJQsqaUBKTNV-1">
          <mxGeometry x="20" y="80" width="40" height="40" as="geometry" />
        </mxCell>
        <mxCell id="mx90RWG0O6bShRLROdk7-22" style="edgeStyle=orthogonalEdgeStyle;rounded=0;orthogonalLoop=1;jettySize=auto;html=1;exitX=0.5;exitY=1;exitDx=0;exitDy=0;entryX=0.5;entryY=0;entryDx=0;entryDy=0;shadow=0;labelBackgroundColor=none;endArrow=block;endFill=0;endSize=8;strokeWidth=1;" edge="1" parent="WIyWlLk6GJQsqaUBKTNV-1" source="mx90RWG0O6bShRLROdk7-19" target="mx90RWG0O6bShRLROdk7-25">
          <mxGeometry relative="1" as="geometry">
            <mxPoint x="370" y="340" as="targetPoint" />
          </mxGeometry>
        </mxCell>
        <mxCell id="mx90RWG0O6bShRLROdk7-24" style="edgeStyle=orthogonalEdgeStyle;rounded=0;orthogonalLoop=1;jettySize=auto;html=1;exitX=1;exitY=0.5;exitDx=0;exitDy=0;entryX=0;entryY=0.5;entryDx=0;entryDy=0;shadow=0;labelBackgroundColor=none;endArrow=block;endFill=0;endSize=8;strokeWidth=1;" edge="1" parent="WIyWlLk6GJQsqaUBKTNV-1" source="mx90RWG0O6bShRLROdk7-19" target="mx90RWG0O6bShRLROdk7-23">
          <mxGeometry relative="1" as="geometry" />
        </mxCell>
        <mxCell id="mx90RWG0O6bShRLROdk7-19" value="Blog / Proposals" style="rounded=1;whiteSpace=wrap;html=1;fontSize=12;glass=0;strokeWidth=1;shadow=0;" vertex="1" parent="WIyWlLk6GJQsqaUBKTNV-1">
          <mxGeometry x="310" y="260" width="120" height="40" as="geometry" />
        </mxCell>
        <mxCell id="mx90RWG0O6bShRLROdk7-23" value="View proposals and comments" style="rounded=1;whiteSpace=wrap;html=1;fontSize=12;glass=0;strokeWidth=1;shadow=0;" vertex="1" parent="WIyWlLk6GJQsqaUBKTNV-1">
          <mxGeometry x="470" y="260" width="120" height="40" as="geometry" />
        </mxCell>
        <mxCell id="mx90RWG0O6bShRLROdk7-26" style="edgeStyle=orthogonalEdgeStyle;rounded=0;orthogonalLoop=1;jettySize=auto;html=1;exitX=0;exitY=0.5;exitDx=0;exitDy=0;entryX=1;entryY=0;entryDx=0;entryDy=0;shadow=0;labelBackgroundColor=none;endArrow=block;endFill=0;endSize=8;strokeWidth=1;" edge="1" parent="WIyWlLk6GJQsqaUBKTNV-1" source="mx90RWG0O6bShRLROdk7-25" target="mx90RWG0O6bShRLROdk7-4">
          <mxGeometry relative="1" as="geometry" />
        </mxCell>
        <mxCell id="mx90RWG0O6bShRLROdk7-25" value="Post a proposal" style="rounded=1;whiteSpace=wrap;html=1;fontSize=12;glass=0;strokeWidth=1;shadow=0;" vertex="1" parent="WIyWlLk6GJQsqaUBKTNV-1">
          <mxGeometry x="310" y="340" width="120" height="40" as="geometry" />
        </mxCell>
        <mxCell id="mx90RWG0O6bShRLROdk7-30" style="edgeStyle=orthogonalEdgeStyle;rounded=0;orthogonalLoop=1;jettySize=auto;html=1;exitX=0;exitY=0.5;exitDx=0;exitDy=0;entryX=1;entryY=0.5;entryDx=0;entryDy=0;shadow=0;labelBackgroundColor=none;endArrow=block;endFill=0;endSize=8;strokeWidth=1;" edge="1" parent="WIyWlLk6GJQsqaUBKTNV-1" source="mx90RWG0O6bShRLROdk7-27" target="mx90RWG0O6bShRLROdk7-4">
          <mxGeometry relative="1" as="geometry" />
        </mxCell>
        <mxCell id="mx90RWG0O6bShRLROdk7-27" value="View Social mediators" style="rounded=1;whiteSpace=wrap;html=1;fontSize=12;glass=0;strokeWidth=1;shadow=0;" vertex="1" parent="WIyWlLk6GJQsqaUBKTNV-1">
          <mxGeometry x="580" y="410" width="120" height="40" as="geometry" />
        </mxCell>
      </root>
    </mxGraphModel>
  </diagram>
</mxfile>
